<?xml version="1.0" encoding="utf-8"?>
<!-- Generator: Adobe Illustrator 14.0.0, SVG Export Plug-In . SVG Version: 6.00 Build 43363)  -->
<!DOCTYPE svg PUBLIC "-//W3C//DTD SVG 1.1//EN" "http://www.w3.org/Graphics/SVG/1.1/DTD/svg11.dtd">
<svg version="1.1" xmlns="http://www.w3.org/2000/svg" xmlns:xlink="http://www.w3.org/1999/xlink" x="0px" y="0px" width="600px"
	 height="100px" viewBox="0 0 600 100" enable-background="new 0 0 600 100" xml:space="preserve">
<g id="Capa_2">
	<path id="_x33__1_" fill="#F4F4F4" d="M348.19,9.275c-6.036,2.318-11.634,5.556-16.793,9.71c-5.16,4.155-8.421,9.614-9.784,16.377
		c7.594,0,14.068,1.788,19.422,5.362c5.354,3.575,8.032,9.42,8.032,17.536c0,6.764-2.434,12.077-7.302,15.942
		C336.897,78.067,331.25,80,324.825,80c-8.567,0-14.847-2.85-18.838-8.551c-3.992-5.7-5.987-12.416-5.987-20.145
		c0-6.957,1.412-13.141,4.235-18.551c2.823-5.411,6.474-10.242,10.952-14.493c4.479-4.251,9.638-7.874,15.479-10.87
		C336.508,4.396,342.349,1.933,348.19,0V9.275z M402.124,9.275c-6.036,2.318-11.634,5.556-16.794,9.71
		c-5.16,4.155-8.421,9.614-9.783,16.377c7.594,0,14.066,1.788,19.422,5.362C400.322,44.3,403,50.145,403,58.261
		c0,6.764-2.434,12.077-7.302,15.942C390.83,78.067,385.185,80,378.759,80c-8.567,0-14.847-2.85-18.838-8.551
		c-3.991-5.7-5.987-12.416-5.987-20.145c0-6.957,1.412-13.141,4.235-18.551c2.823-5.411,6.474-10.242,10.952-14.493
		s9.638-7.874,15.479-10.87c5.842-2.994,11.684-5.458,17.524-7.391V9.275z"/>
	<path id="_x33_" fill="#F4F4F4" d="M504.811,70.725c6.035-2.318,11.633-5.556,16.793-9.71c5.16-4.155,8.421-9.614,9.784-16.377
		c-7.594,0-14.067-1.788-19.423-5.362c-5.354-3.575-8.031-9.42-8.031-17.536c0-6.764,2.434-12.077,7.302-15.942
		C516.104,1.933,521.75,0,528.175,0c8.567,0,14.847,2.85,18.838,8.551c3.991,5.7,5.987,12.416,5.987,20.145
		c0,6.957-1.412,13.141-4.234,18.551c-2.824,5.411-6.475,10.242-10.953,14.493s-9.638,7.874-15.479,10.87
		c-5.842,2.994-11.683,5.458-17.523,7.391V70.725z M450.876,70.725c6.036-2.318,11.634-5.556,16.794-9.71
		c5.16-4.155,8.421-9.614,9.783-16.377c-7.594,0-14.066-1.788-19.422-5.362C452.678,35.7,450,29.855,450,21.739
		c0-6.764,2.434-12.077,7.302-15.942C462.17,1.933,467.815,0,474.241,0c8.567,0,14.847,2.85,18.838,8.551
		c3.991,5.7,5.987,12.416,5.987,20.145c0,6.957-1.412,13.141-4.235,18.551c-2.823,5.411-6.474,10.242-10.952,14.493
		s-9.638,7.874-15.479,10.87c-5.842,2.994-11.684,5.458-17.524,7.391V70.725z"/>
</g>
<g id="Capa_1">
	<g>
		<defs>
			<rect id="SVGID_1_" width="250" height="100"/>
		</defs>
		<clipPath id="SVGID_2_">
			<use xlink:href="#SVGID_1_"  overflow="visible"/>
		</clipPath>
		<path clip-path="url(#SVGID_2_)" fill-rule="evenodd" clip-rule="evenodd" fill="#FFFFFF" d="M72.359,49.082
			c0-2.375-1.174-3.412-3.626-4.196c-1.048-0.339-2.327-0.636-2.327-1.462c0-0.68,0.42-0.975,1.05-0.975h0.354
			c0.714,0,1.238,0.381,1.614,1.102c0.085,0.17,0.272,0.17,0.419,0.062l2.18-1.461c0.21-0.127,0.127-0.34,0.043-0.467
			c-0.271-0.465-0.608-0.889-1.007-1.229c-0.817-0.721-1.928-1.123-3.29-1.123h-0.313c-2.871,0-4.612,1.567-4.612,4.195
			c0,2.352,1.258,3.283,3.501,4.069c1.405,0.487,2.452,0.612,2.452,1.567c0,0.613-0.418,0.975-1.069,0.975h-0.649
			c-0.713,0-1.236-0.381-1.614-1.104c-0.083-0.168-0.272-0.168-0.418-0.062l-2.181,1.462c-0.211,0.126-0.126,0.317-0.042,0.445
			c0.231,0.401,0.505,0.762,0.839,1.08c0.838,0.826,2.012,1.293,3.458,1.293h0.649C70.725,53.256,72.359,51.688,72.359,49.082"/>
		<path clip-path="url(#SVGID_2_)" fill-rule="evenodd" clip-rule="evenodd" fill="#FFFFFF" d="M100.078,52.766v-12.98
			c0-0.169-0.146-0.211-0.231-0.211h-3.08c-0.104,0-0.188,0.042-0.188,0.211v12.98c0,0.172,0.083,0.215,0.188,0.215h3.08
			C99.973,52.98,100.078,52.938,100.078,52.766"/>
		<path clip-path="url(#SVGID_2_)" fill-rule="evenodd" clip-rule="evenodd" fill="#FFFFFF" d="M95.12,42.506v-2.721
			c0-0.17-0.125-0.211-0.21-0.211h-8.716c-0.105,0-0.189,0.041-0.189,0.211v12.98c0,0.171,0.084,0.214,0.189,0.214h3.1
			c0.106,0,0.21-0.043,0.21-0.214v-4.779c0-0.148,0.064-0.232,0.253-0.232h4.232c0.104,0,0.209-0.043,0.209-0.193v-2.74
			c0-0.148-0.104-0.189-0.209-0.189h-4.232c-0.188,0-0.253-0.086-0.253-0.234v-1.468c0-0.147,0.064-0.231,0.253-0.231h5.153
			C95.036,42.697,95.12,42.654,95.12,42.506"/>
		<path clip-path="url(#SVGID_2_)" fill-rule="evenodd" clip-rule="evenodd" fill="#FFFFFF" d="M108.082,48.393
			c0.021,0.107-0.042,0.192-0.188,0.192h-1.217c-0.168,0-0.231-0.085-0.21-0.192l0.378-1.654c0.293-1.252,0.438-2.612,0.438-2.612
			h0.064c0,0,0.146,1.36,0.398,2.612L108.082,48.393z M113.014,52.703l-4.385-12.971c-0.042-0.129-0.105-0.148-0.189-0.148h-2.287
			c-0.127,0-0.168,0.042-0.21,0.148l-4.385,12.971c-0.064,0.17,0.02,0.277,0.21,0.277h3.229c0.106,0,0.148-0.043,0.19-0.149
			l0.566-1.593c0.043-0.106,0.084-0.148,0.252-0.148h2.518c0.168,0,0.23,0.042,0.273,0.148l0.546,1.593
			c0.041,0.106,0.062,0.149,0.187,0.149h3.295C113.056,52.98,113.076,52.873,113.014,52.703"/>
		<path clip-path="url(#SVGID_2_)" fill-rule="evenodd" clip-rule="evenodd" fill="#FFFFFF" d="M46.37,52.734V39.787
			c0-0.17-0.125-0.213-0.21-0.213h-2.955c-0.125,0-0.188,0.043-0.188,0.213v3.432c0,1.887,0.104,3.539,0.104,3.539H43.06
			c0,0-0.168-0.465-0.462-1.016l-3.103-5.975c-0.062-0.129-0.146-0.193-0.271-0.193h-2.662c-0.105,0-0.188,0.043-0.188,0.213v12.947
			c0,0.168,0.083,0.211,0.188,0.211h3.018c0.126,0,0.21-0.043,0.21-0.211v-3.369c0-1.738-0.127-3.412-0.127-3.412h0.085
			c0,0,0.167,0.467,0.44,0.953l3.123,5.849c0.062,0.105,0.125,0.19,0.23,0.19h2.619C46.286,52.945,46.37,52.902,46.37,52.734"/>
		<path clip-path="url(#SVGID_2_)" fill-rule="evenodd" clip-rule="evenodd" fill="#FFFFFF" d="M34.351,52.734V39.787
			c0-0.17-0.146-0.213-0.231-0.213h-3.08c-0.104,0-0.188,0.043-0.188,0.213v12.947c0,0.168,0.084,0.211,0.188,0.211h3.08
			C34.246,52.945,34.351,52.902,34.351,52.734"/>
		<path clip-path="url(#SVGID_2_)" fill-rule="evenodd" clip-rule="evenodd" fill="#FFFFFF" d="M80.86,49.271
			c0,0.508-0.377,0.869-1.026,0.869h-1.468c-0.733,0-1.11-0.34-1.11-0.869v-5.954c0-0.444,0.503-0.89,1.11-0.89h1.468
			c0.607,0,1.026,0.382,1.026,0.89V49.271z M84.34,49.271v-5.954c0-2.416-1.823-3.983-4.506-3.983h-1.468
			c-2.682,0-4.548,1.59-4.548,3.983v5.954c0,2.395,1.823,3.984,4.548,3.984h1.468C82.517,53.256,84.34,51.666,84.34,49.271"/>
		<path clip-path="url(#SVGID_2_)" fill-rule="evenodd" clip-rule="evenodd" fill="#FFFFFF" d="M54.264,48.368
			c0.021,0.106-0.042,0.191-0.188,0.191h-1.217c-0.167,0-0.23-0.085-0.21-0.191l0.377-1.651c0.294-1.252,0.44-2.607,0.44-2.607
			h0.063c0,0,0.146,1.355,0.398,2.607L54.264,48.368z M59.188,52.669l-4.38-12.945c-0.042-0.128-0.104-0.149-0.188-0.149h-2.286
			c-0.125,0-0.167,0.043-0.209,0.149l-4.38,12.945c-0.063,0.171,0.021,0.276,0.21,0.276h3.227c0.105,0,0.147-0.043,0.189-0.148
			l0.565-1.59c0.041-0.104,0.084-0.147,0.251-0.147h2.516c0.168,0,0.23,0.043,0.272,0.147l0.545,1.59
			c0.042,0.105,0.063,0.148,0.188,0.148h3.291C59.23,52.945,59.252,52.84,59.188,52.669"/>
		<path clip-path="url(#SVGID_2_)" fill-rule="evenodd" clip-rule="evenodd" fill="#FFFFFF" d="M28.828,52.734v-2.713
			c0-0.148-0.105-0.19-0.209-0.19h-5.156c-0.189,0-0.251-0.085-0.251-0.234v-1.632c0-0.146,0.062-0.232,0.251-0.232h4.234
			c0.104,0,0.209-0.043,0.209-0.189v-2.734c0-0.148-0.104-0.189-0.209-0.189h-4.234c-0.189,0-0.251-0.086-0.251-0.234v-1.463
			c0-0.146,0.062-0.232,0.251-0.232h5.156c0.125,0,0.209-0.041,0.209-0.19v-2.712c0-0.17-0.126-0.213-0.209-0.213h-8.721
			c-0.104,0-0.188,0.043-0.188,0.213v12.947c0,0.168,0.084,0.211,0.188,0.211h8.721C28.744,52.945,28.828,52.902,28.828,52.734"/>
		<path clip-path="url(#SVGID_2_)" fill-rule="evenodd" clip-rule="evenodd" fill="#FFFFFF" d="M17.981,52.669l-2.055-5.317
			c-0.063-0.189-0.083-0.34,0.105-0.465c0.922-0.594,1.529-1.612,1.529-2.926v-0.19c0-2.606-1.76-4.196-4.506-4.196H7.209
			c-0.105,0-0.189,0.043-0.189,0.213v12.946c0,0.169,0.084,0.212,0.189,0.212h3.101c0.105,0,0.21-0.043,0.21-0.212v-4.769
			c0-0.147,0.063-0.232,0.252-0.232h1.445c0.085,0,0.146,0.043,0.19,0.148l1.927,4.916c0.042,0.085,0.104,0.148,0.188,0.148h3.27
			C18.002,52.945,18.044,52.818,17.981,52.669 M14.104,43.982c0,0.572-0.397,0.848-1.048,0.848h-2.284
			c-0.188,0-0.252-0.084-0.252-0.234v-1.674c0-0.146,0.063-0.232,0.252-0.232h2.284c0.692,0,1.048,0.318,1.048,0.891V43.982z"/>
		<path clip-path="url(#SVGID_2_)" fill-rule="evenodd" clip-rule="evenodd" fill="#FFFFFF" d="M76.107,13.916
			c0,1.713-1.271,2.849-3.146,2.849h-1.024c-1.903,0-3.176-1.136-3.176-2.849V9.658c0-1.713,1.303-2.848,3.176-2.848h1.024
			c1.874,0,3.146,1.121,3.146,2.848v0.816h-2.429V9.658c0-0.363-0.293-0.637-0.717-0.637h-1.024c-0.425,0-0.775,0.318-0.775,0.637
			v4.258c0,0.379,0.263,0.621,0.775,0.621h1.024c0.454,0,0.717-0.258,0.717-0.621V13.1h2.429V13.916z"/>
		<path clip-path="url(#SVGID_2_)" fill-rule="evenodd" clip-rule="evenodd" fill="#FFFFFF" d="M15.736,16.439V7.174
			c0-0.121-0.06-0.151-0.146-0.151h-2.125c-0.059,0-0.117,0.03-0.146,0.091l-1.686,4.656c-0.117,0.333-0.189,0.605-0.189,0.605
			h-0.06c0,0-0.028-0.272-0.161-0.605L9.481,7.113c-0.03-0.061-0.089-0.091-0.147-0.091H7.152c-0.088,0-0.132,0.03-0.132,0.151
			v9.266c0,0.123,0.044,0.152,0.132,0.152h2.064c0.103,0,0.146-0.029,0.146-0.152v-1.986c0-1.439-0.131-2.76-0.131-2.76h0.044
			c0,0,0.131,0.637,0.365,1.32l0.776,2.289c0.044,0.121,0.176,0.15,0.264,0.15h1.422c0.088,0,0.204-0.029,0.249-0.15l0.776-2.244
			c0.234-0.684,0.365-1.365,0.365-1.365h0.045c0,0-0.103,1.365-0.103,2.79v1.956c0,0.123,0.028,0.152,0.132,0.152h2.021
			C15.677,16.592,15.736,16.562,15.736,16.439"/>
		<path clip-path="url(#SVGID_2_)" fill-rule="evenodd" clip-rule="evenodd" fill="#FFFFFF" d="M40.113,16.436v-1.942
			c0-0.106-0.073-0.138-0.146-0.138h-3.411c-0.132,0-0.176-0.06-0.176-0.166v-1.168c0-0.105,0.044-0.166,0.176-0.166h2.766
			c0.074,0,0.146-0.031,0.146-0.137v-1.955c0-0.107-0.072-0.139-0.146-0.139h-2.766c-0.132,0-0.176-0.061-0.176-0.167V9.412
			c0-0.105,0.044-0.166,0.176-0.166h3.411c0.087,0,0.146-0.031,0.146-0.137V7.168c0-0.122-0.088-0.152-0.146-0.152h-5.9
			c-0.074,0-0.133,0.03-0.133,0.152v9.268c0,0.119,0.059,0.149,0.133,0.149h5.9C40.054,16.585,40.113,16.555,40.113,16.436"/>
		<path clip-path="url(#SVGID_2_)" fill-rule="evenodd" clip-rule="evenodd" fill="#FFFFFF" d="M32.621,13.795
			c0-1.698-0.819-2.441-2.534-3.002c-0.732-0.243-1.627-0.455-1.627-1.047c0-0.485,0.293-0.697,0.733-0.697h0.249
			c0.498,0,0.864,0.273,1.128,0.788c0.059,0.121,0.191,0.121,0.293,0.045l1.524-1.046c0.146-0.09,0.087-0.243,0.028-0.333
			c-0.19-0.334-0.425-0.638-0.704-0.88c-0.569-0.516-1.347-0.803-2.299-0.803h-0.22c-2.007,0-3.224,1.121-3.224,3.002
			c0,1.682,0.879,2.35,2.447,2.91c0.981,0.35,1.713,0.441,1.713,1.125c0,0.438-0.292,0.695-0.745,0.695H28.93
			c-0.498,0-0.864-0.273-1.128-0.789c-0.059-0.119-0.19-0.119-0.293-0.045l-1.523,1.047c-0.147,0.092-0.088,0.229-0.03,0.319
			c0.162,0.287,0.354,0.544,0.586,0.772c0.587,0.592,1.407,0.926,2.418,0.926h0.454C31.479,16.783,32.621,15.66,32.621,13.795"/>
		<path clip-path="url(#SVGID_2_)" fill-rule="evenodd" clip-rule="evenodd" fill="#FFFFFF" d="M46.148,13.932
			c0,0.365-0.263,0.621-0.717,0.621h-1.026c-0.513,0-0.776-0.242-0.776-0.621V9.67c0-0.318,0.352-0.637,0.776-0.637h1.026
			c0.424,0,0.717,0.273,0.717,0.637V13.932z M48.58,13.932V9.67c0-1.729-1.273-2.85-3.148-2.85h-1.026
			c-1.875,0-3.179,1.137-3.179,2.85v4.262c0,1.713,1.274,2.852,3.179,2.852h1.026C47.307,16.783,48.58,15.645,48.58,13.932"/>
		<path clip-path="url(#SVGID_2_)" fill-rule="evenodd" clip-rule="evenodd" fill="#FFFFFF" d="M24.779,13.938V7.174
			c0-0.121-0.044-0.151-0.132-0.151h-2.154c-0.072,0-0.131,0.03-0.131,0.151v6.764c0,0.379-0.22,0.623-0.732,0.623h-1.025
			c-0.542,0-0.777-0.244-0.777-0.623V7.174c0-0.121-0.072-0.151-0.131-0.151h-2.125c-0.088,0-0.131,0.03-0.131,0.151v6.764
			c0,1.713,1.259,2.852,3.164,2.852h1.025C23.505,16.789,24.779,15.65,24.779,13.938"/>
		<path clip-path="url(#SVGID_2_)" fill-rule="evenodd" clip-rule="evenodd" fill="#FFFFFF" d="M59.202,16.441V7.176
			c0-0.121-0.088-0.15-0.146-0.15H56.99c-0.088,0-0.132,0.029-0.132,0.15v2.457c0,1.35,0.073,2.533,0.073,2.533h-0.043
			c0,0-0.118-0.334-0.323-0.729l-2.168-4.276c-0.044-0.091-0.104-0.136-0.192-0.136h-1.858c-0.074,0-0.134,0.029-0.134,0.15v9.266
			c0,0.123,0.06,0.152,0.134,0.152h2.108c0.088,0,0.147-0.029,0.147-0.152v-2.41c0-1.244-0.088-2.442-0.088-2.442h0.059
			c0,0,0.117,0.334,0.306,0.683l2.185,4.188c0.044,0.074,0.088,0.135,0.161,0.135h1.832C59.144,16.594,59.202,16.564,59.202,16.441"
			/>
		<path clip-path="url(#SVGID_2_)" fill-rule="evenodd" clip-rule="evenodd" fill="#FFFFFF" d="M112.98,16.441v-1.939
			c0-0.107-0.072-0.139-0.146-0.139h-3.604c-0.131,0-0.176-0.061-0.176-0.166V7.176c0-0.121-0.088-0.15-0.146-0.15h-2.168
			c-0.073,0-0.133,0.029-0.133,0.15v9.266c0,0.123,0.06,0.152,0.133,0.152h6.094C112.922,16.594,112.98,16.564,112.98,16.441"/>
		<path clip-path="url(#SVGID_2_)" fill-rule="evenodd" clip-rule="evenodd" fill="#FFFFFF" d="M96.805,16.441V7.176
			c0-0.121-0.088-0.15-0.146-0.15h-2.064c-0.088,0-0.135,0.029-0.135,0.15v2.457c0,1.35,0.074,2.533,0.074,2.533H94.49
			c0,0-0.118-0.334-0.324-0.729l-2.168-4.276c-0.042-0.091-0.102-0.136-0.188-0.136h-1.862c-0.073,0-0.131,0.029-0.131,0.15v9.266
			c0,0.123,0.058,0.152,0.131,0.152h2.109c0.09,0,0.147-0.029,0.147-0.152v-2.41c0-1.244-0.089-2.442-0.089-2.442h0.061
			c0,0,0.115,0.334,0.307,0.683l2.183,4.188c0.046,0.074,0.089,0.135,0.16,0.135h1.833C96.745,16.594,96.805,16.564,96.805,16.441"
			/>
		<path clip-path="url(#SVGID_2_)" fill-rule="evenodd" clip-rule="evenodd" fill="#FFFFFF" d="M79.807,16.441V7.176
			c0-0.121-0.103-0.15-0.161-0.15h-2.153c-0.073,0-0.132,0.029-0.132,0.15v9.266c0,0.123,0.059,0.152,0.132,0.152h2.153
			C79.733,16.594,79.807,16.564,79.807,16.441"/>
		<path clip-path="url(#SVGID_2_)" fill-rule="evenodd" clip-rule="evenodd" fill="#FFFFFF" d="M102.068,13.317
			c0.014,0.077-0.03,0.138-0.132,0.138h-0.851c-0.117,0-0.161-0.061-0.146-0.138l0.263-1.182c0.205-0.896,0.308-1.866,0.308-1.866
			h0.044c0,0,0.104,0.971,0.278,1.866L102.068,13.317z M105.51,16.396l-3.062-9.266c-0.029-0.092-0.073-0.106-0.132-0.106h-1.598
			c-0.087,0-0.115,0.03-0.146,0.106l-3.062,9.266c-0.043,0.122,0.017,0.197,0.147,0.197h2.256c0.074,0,0.103-0.03,0.132-0.106
			l0.396-1.138c0.029-0.075,0.059-0.105,0.176-0.105h1.758c0.117,0,0.161,0.03,0.191,0.105l0.381,1.138
			c0.028,0.076,0.043,0.106,0.131,0.106h2.3C105.539,16.594,105.554,16.519,105.51,16.396"/>
		<path clip-path="url(#SVGID_2_)" fill-rule="evenodd" clip-rule="evenodd" fill="#FFFFFF" d="M85.927,13.939
			c0,0.363-0.263,0.621-0.718,0.621h-1.025c-0.513,0-0.776-0.24-0.776-0.621V9.679c0-0.319,0.352-0.637,0.776-0.637h1.025
			c0.425,0,0.718,0.272,0.718,0.637V13.939z M88.358,13.939V9.679c0-1.729-1.274-2.852-3.149-2.852h-1.025
			c-1.877,0-3.18,1.138-3.18,2.852v4.261c0,1.713,1.274,2.852,3.18,2.852h1.025C87.084,16.791,88.358,15.652,88.358,13.939"/>
		<path clip-path="url(#SVGID_2_)" fill-rule="evenodd" clip-rule="evenodd" fill="#FFFFFF" d="M64.764,13.317
			c0.014,0.077-0.029,0.136-0.132,0.136h-0.851c-0.117,0-0.16-0.059-0.145-0.136l0.262-1.183c0.206-0.895,0.308-1.865,0.308-1.865
			h0.044c0,0,0.103,0.971,0.279,1.865L64.764,13.317z M68.206,16.396l-3.062-9.266c-0.029-0.092-0.074-0.106-0.132-0.106h-1.598
			c-0.087,0-0.117,0.03-0.146,0.106l-3.062,9.266c-0.044,0.121,0.016,0.197,0.146,0.197h2.256c0.074,0,0.103-0.03,0.133-0.106
			l0.396-1.138c0.028-0.075,0.058-0.107,0.175-0.107h1.758c0.117,0,0.161,0.032,0.191,0.107l0.381,1.138
			c0.028,0.076,0.044,0.106,0.131,0.106h2.301C68.234,16.594,68.249,16.518,68.206,16.396"/>
		<path clip-path="url(#SVGID_2_)" fill-rule="evenodd" clip-rule="evenodd" fill="#FFFFFF" d="M14.375,25.986
			c0,1.711-1.272,2.849-3.146,2.849h-1.025c-1.901,0-3.176-1.138-3.176-2.849v-4.26c0-1.712,1.303-2.848,3.176-2.848h1.025
			c1.873,0,3.146,1.12,3.146,2.848v0.817h-2.429v-0.817c0-0.363-0.293-0.637-0.717-0.637h-1.025c-0.425,0-0.775,0.318-0.775,0.637
			v4.26c0,0.379,0.263,0.621,0.775,0.621h1.025c0.453,0,0.717-0.258,0.717-0.621V25.17h2.429V25.986z"/>
		<path clip-path="url(#SVGID_2_)" fill-rule="evenodd" clip-rule="evenodd" fill="#FFFFFF" d="M39.365,21.242v-1.941
			c0-0.121-0.087-0.152-0.131-0.152h-6.402c-0.073,0-0.146,0.031-0.146,0.152v1.941c0,0.105,0.073,0.137,0.146,0.137h1.794
			c0.161,0,0.191,0.061,0.191,0.167v7.022c0,0.123,0.058,0.152,0.131,0.152h2.153c0.073,0,0.146-0.029,0.146-0.152v-7.022
			c0-0.106,0.03-0.167,0.176-0.167h1.811C39.307,21.379,39.365,21.348,39.365,21.242"/>
		<path clip-path="url(#SVGID_2_)" fill-rule="evenodd" clip-rule="evenodd" fill="#FFFFFF" d="M31.216,28.568v-9.268
			c0-0.121-0.088-0.151-0.146-0.151h-2.066c-0.088,0-0.132,0.03-0.132,0.151v2.457c0,1.35,0.073,2.533,0.073,2.533h-0.043
			c0,0-0.118-0.332-0.323-0.728l-2.168-4.278c-0.044-0.091-0.103-0.136-0.19-0.136h-1.859c-0.074,0-0.132,0.03-0.132,0.151v9.268
			c0,0.123,0.058,0.152,0.132,0.152h2.108c0.088,0,0.146-0.029,0.146-0.152v-2.412c0-1.242-0.088-2.441-0.088-2.441h0.06
			c0,0,0.116,0.334,0.308,0.684l2.182,4.186c0.044,0.074,0.088,0.137,0.161,0.137h1.832C31.157,28.721,31.216,28.691,31.216,28.568"
			/>
		<path clip-path="url(#SVGID_2_)" fill-rule="evenodd" clip-rule="evenodd" fill="#FFFFFF" d="M54.516,25.986
			c0,0.365-0.263,0.623-0.717,0.623h-1.026c-0.513,0-0.776-0.242-0.776-0.623v-4.261c0-0.319,0.352-0.637,0.776-0.637h1.026
			c0.424,0,0.717,0.272,0.717,0.637V25.986z M56.947,25.986v-4.261c0-1.729-1.273-2.852-3.148-2.852h-1.026
			c-1.875,0-3.179,1.138-3.179,2.852v4.261c0,1.715,1.274,2.854,3.179,2.854h1.026C55.674,28.84,56.947,27.701,56.947,25.986"/>
		<path clip-path="url(#SVGID_2_)" fill-rule="evenodd" clip-rule="evenodd" fill="#FFFFFF" d="M45.775,22.305
			c0,0.41-0.278,0.605-0.731,0.605h-1.598c-0.132,0-0.176-0.061-0.176-0.166v-1.199c0-0.104,0.044-0.166,0.176-0.166h1.598
			c0.482,0,0.731,0.228,0.731,0.638V22.305z M48.485,28.523l-1.436-3.809c-0.043-0.135-0.059-0.24,0.074-0.334
			c0.644-0.422,1.068-1.15,1.068-2.092v-0.137c0-1.865-1.229-3.004-3.148-3.004h-4.087c-0.074,0-0.133,0.031-0.133,0.152v9.268
			c0,0.122,0.059,0.152,0.133,0.152h2.168c0.072,0,0.146-0.03,0.146-0.152v-3.414c0-0.105,0.044-0.165,0.176-0.165h1.012
			c0.058,0,0.102,0.03,0.132,0.106l1.347,3.518c0.029,0.062,0.073,0.107,0.132,0.107h2.285
			C48.501,28.721,48.529,28.629,48.485,28.523"/>
		<path clip-path="url(#SVGID_2_)" fill-rule="evenodd" clip-rule="evenodd" fill="#FFFFFF" d="M22.389,28.568v-1.941
			c0-0.105-0.072-0.137-0.146-0.137h-3.604c-0.132,0-0.176-0.061-0.176-0.167v-1.169c0-0.105,0.044-0.165,0.176-0.165h2.959
			c0.073,0,0.146-0.03,0.146-0.137v-1.957c0-0.106-0.073-0.136-0.146-0.136h-2.959c-0.132,0-0.176-0.062-0.176-0.168v-1.047
			c0-0.104,0.044-0.166,0.176-0.166h3.604c0.087,0,0.146-0.03,0.146-0.137v-1.941c0-0.121-0.088-0.151-0.146-0.151h-6.094
			c-0.073,0-0.133,0.03-0.133,0.151v9.268c0,0.123,0.06,0.152,0.133,0.152h6.094C22.33,28.721,22.389,28.691,22.389,28.568"/>
		<path clip-path="url(#SVGID_2_)" fill-rule="evenodd" clip-rule="evenodd" fill="#FFFFFF" d="M112.98,28.568v-1.941
			c0-0.105-0.074-0.137-0.147-0.137h-3.603c-0.132,0-0.176-0.059-0.176-0.167v-1.169c0-0.105,0.044-0.165,0.176-0.165h2.958
			c0.074,0,0.146-0.03,0.146-0.137v-1.957c0-0.106-0.072-0.136-0.146-0.136h-2.958c-0.132,0-0.176-0.062-0.176-0.168v-1.047
			c0-0.104,0.044-0.166,0.176-0.166h3.603c0.088,0,0.147-0.03,0.147-0.137v-1.941c0-0.121-0.088-0.151-0.147-0.151h-6.094
			c-0.072,0-0.132,0.03-0.132,0.151v9.268c0,0.123,0.06,0.152,0.132,0.152h6.094C112.921,28.721,112.98,28.691,112.98,28.568"/>
		<path clip-path="url(#SVGID_2_)" fill-rule="evenodd" clip-rule="evenodd" fill="#FFFFFF" d="M104.865,21.242v-1.941
			c0-0.121-0.088-0.152-0.131-0.152h-6.402c-0.074,0-0.147,0.031-0.147,0.152v1.941c0,0.105,0.073,0.137,0.147,0.137h1.795
			c0.16,0,0.189,0.061,0.189,0.167v7.022c0,0.123,0.059,0.152,0.132,0.152h2.154c0.071,0,0.146-0.029,0.146-0.152v-7.022
			c0-0.106,0.029-0.167,0.176-0.167h1.811C104.806,21.379,104.865,21.348,104.865,21.242"/>
		<path clip-path="url(#SVGID_2_)" fill-rule="evenodd" clip-rule="evenodd" fill="#FFFFFF" d="M76.639,28.568v-1.941
			c0-0.105-0.074-0.137-0.146-0.137h-3.604c-0.132,0-0.176-0.059-0.176-0.167v-1.169c0-0.105,0.044-0.165,0.176-0.165h2.96
			c0.072,0,0.145-0.03,0.145-0.137v-1.957c0-0.106-0.072-0.136-0.145-0.136h-2.96c-0.132,0-0.176-0.062-0.176-0.168v-1.047
			c0-0.104,0.044-0.166,0.176-0.166h3.604c0.086,0,0.146-0.03,0.146-0.137v-1.941c0-0.121-0.088-0.151-0.146-0.151h-6.094
			c-0.074,0-0.132,0.03-0.132,0.151v9.268c0,0.123,0.058,0.152,0.132,0.152h6.094C76.579,28.721,76.639,28.691,76.639,28.568"/>
		<path clip-path="url(#SVGID_2_)" fill-rule="evenodd" clip-rule="evenodd" fill="#FFFFFF" d="M68.396,25.748v-3.596
			c0-1.865-1.229-3.004-3.148-3.004H61.16c-0.074,0-0.133,0.031-0.133,0.152v9.268c0,0.123,0.059,0.152,0.133,0.152h4.087
			C67.166,28.721,68.396,27.582,68.396,25.748 M65.979,25.869c0,0.318-0.321,0.621-0.731,0.621h-1.598
			c-0.132,0-0.175-0.059-0.175-0.166v-4.778c0-0.106,0.043-0.167,0.175-0.167h1.598c0.395,0,0.731,0.334,0.731,0.637V25.869z"/>
		<path clip-path="url(#SVGID_2_)" fill-rule="evenodd" clip-rule="evenodd" fill="#FFFFFF" d="M94.768,22.305
			c0,0.41-0.279,0.605-0.732,0.605h-1.596c-0.133,0-0.176-0.059-0.176-0.166v-1.199c0-0.104,0.043-0.166,0.176-0.166h1.596
			c0.483,0,0.732,0.228,0.732,0.638V22.305z M97.479,28.523l-1.438-3.807c-0.043-0.137-0.059-0.242,0.074-0.334
			c0.644-0.424,1.07-1.152,1.07-2.094v-0.137c0-1.865-1.23-3.004-3.15-3.004h-4.088c-0.073,0-0.131,0.031-0.131,0.152v9.268
			c0,0.122,0.058,0.152,0.131,0.152h2.168c0.074,0,0.148-0.03,0.148-0.152v-3.414c0-0.105,0.043-0.165,0.176-0.165h1.01
			c0.058,0,0.104,0.03,0.131,0.106l1.349,3.518c0.028,0.062,0.072,0.107,0.132,0.107h2.285
			C97.492,28.721,97.521,28.629,97.479,28.523"/>
		<path clip-path="url(#SVGID_2_)" fill-rule="evenodd" clip-rule="evenodd" fill="#FFFFFF" d="M85.117,25.444
			c0.014,0.076-0.029,0.136-0.133,0.136h-0.85c-0.117,0-0.16-0.06-0.146-0.136l0.263-1.183c0.205-0.896,0.308-1.866,0.308-1.866
			h0.044c0,0,0.103,0.97,0.278,1.866L85.117,25.444z M88.559,28.523l-3.061-9.268c-0.03-0.092-0.074-0.107-0.132-0.107h-1.598
			c-0.087,0-0.117,0.031-0.146,0.107l-3.062,9.268c-0.044,0.121,0.016,0.197,0.146,0.197h2.256c0.074,0,0.103-0.03,0.133-0.107
			l0.396-1.136c0.028-0.077,0.058-0.108,0.175-0.108h1.758c0.117,0,0.161,0.031,0.191,0.108l0.381,1.136
			c0.028,0.077,0.043,0.107,0.131,0.107h2.301C88.588,28.721,88.603,28.645,88.559,28.523"/>
		<path clip-path="url(#SVGID_2_)" fill-rule="evenodd" clip-rule="evenodd" fill="#FFFFFF" d="M0,0h120v60H0V0z M116.811,35.746
			H3.191v21.061H116.81L116.811,35.746z M3.19,32.555H116.81V3.193L3.192,3.191L3.19,32.555z"/>
		<path clip-path="url(#SVGID_2_)" fill-rule="evenodd" clip-rule="evenodd" fill="#FFFFFF" d="M210.3,40.901
			c0-1.979-0.978-2.844-3.021-3.497c-0.873-0.281-1.939-0.529-1.939-1.218c0-0.565,0.351-0.812,0.874-0.812h0.297
			c0.594,0,1.03,0.317,1.345,0.918c0.07,0.142,0.228,0.142,0.35,0.051l1.816-1.217c0.174-0.106,0.105-0.283,0.034-0.389
			c-0.227-0.388-0.507-0.74-0.838-1.025c-0.681-0.599-1.606-0.935-2.742-0.935h-0.262c-2.393,0-3.843,1.308-3.843,3.497
			c0,1.959,1.049,2.734,2.917,3.391c1.171,0.405,2.043,0.51,2.043,1.305c0,0.513-0.349,0.812-0.891,0.812h-0.541
			c-0.594,0-1.03-0.318-1.345-0.919c-0.07-0.141-0.227-0.141-0.349-0.052l-1.816,1.219c-0.176,0.105-0.104,0.264-0.036,0.37
			c0.192,0.336,0.42,0.636,0.698,0.899c0.699,0.689,1.678,1.078,2.883,1.078h0.541C208.938,44.379,210.3,43.072,210.3,40.901"/>
		<path clip-path="url(#SVGID_2_)" fill-rule="evenodd" clip-rule="evenodd" fill="#FFFFFF" d="M233.398,43.972V33.154
			c0-0.141-0.122-0.177-0.191-0.177h-2.567c-0.088,0-0.156,0.036-0.156,0.177v10.817c0,0.144,0.068,0.179,0.156,0.179h2.567
			C233.311,44.15,233.398,44.115,233.398,43.972"/>
		<path clip-path="url(#SVGID_2_)" fill-rule="evenodd" clip-rule="evenodd" fill="#FFFFFF" d="M229.268,35.421v-2.267
			c0-0.142-0.104-0.176-0.176-0.176h-7.264c-0.088,0-0.157,0.034-0.157,0.176v10.817c0,0.142,0.069,0.179,0.157,0.179h2.586
			c0.087,0,0.174-0.037,0.174-0.179v-3.983c0-0.125,0.052-0.193,0.209-0.193h3.528c0.087,0,0.175-0.036,0.175-0.161v-2.282
			c0-0.125-0.088-0.16-0.175-0.16h-3.528c-0.157,0-0.209-0.071-0.209-0.194v-1.222c0-0.125,0.052-0.194,0.209-0.194h4.295
			C229.198,35.581,229.268,35.545,229.268,35.421"/>
		<path clip-path="url(#SVGID_2_)" fill-rule="evenodd" clip-rule="evenodd" fill="#FFFFFF" d="M240.068,40.328
			c0.019,0.089-0.035,0.16-0.156,0.16h-1.015c-0.139,0-0.191-0.071-0.176-0.16l0.316-1.381c0.243-1.043,0.366-2.176,0.366-2.176
			h0.054c0,0,0.122,1.133,0.332,2.176L240.068,40.328z M244.178,43.92l-3.654-10.811c-0.035-0.106-0.088-0.123-0.158-0.123h-1.904
			c-0.106,0-0.141,0.035-0.175,0.123l-3.653,10.811c-0.054,0.143,0.016,0.23,0.173,0.23h2.693c0.088,0,0.123-0.037,0.157-0.125
			l0.473-1.326c0.035-0.09,0.069-0.125,0.21-0.125h2.097c0.141,0,0.193,0.035,0.229,0.125l0.454,1.326
			c0.034,0.088,0.053,0.125,0.156,0.125h2.747C244.214,44.15,244.23,44.062,244.178,43.92"/>
		<path clip-path="url(#SVGID_2_)" fill-rule="evenodd" clip-rule="evenodd" fill="#FFFFFF" d="M188.643,43.945V33.154
			c0-0.14-0.104-0.176-0.176-0.176h-2.462c-0.104,0-0.157,0.036-0.157,0.176v2.861c0,1.572,0.088,2.949,0.088,2.949h-0.053
			c0,0-0.14-0.389-0.385-0.848l-2.584-4.979c-0.053-0.107-0.123-0.16-0.228-0.16h-2.219c-0.087,0-0.156,0.036-0.156,0.176v10.791
			c0,0.141,0.069,0.176,0.156,0.176h2.516c0.104,0,0.175-0.035,0.175-0.176v-2.809c0-1.447-0.105-2.843-0.105-2.843h0.07
			c0,0,0.14,0.389,0.367,0.795l2.603,4.873c0.052,0.088,0.104,0.159,0.192,0.159h2.182
			C188.572,44.121,188.643,44.086,188.643,43.945"/>
		<path clip-path="url(#SVGID_2_)" fill-rule="evenodd" clip-rule="evenodd" fill="#FFFFFF" d="M178.626,43.945V33.154
			c0-0.14-0.122-0.176-0.192-0.176h-2.567c-0.088,0-0.157,0.036-0.157,0.176v10.791c0,0.141,0.069,0.176,0.157,0.176h2.567
			C178.539,44.121,178.626,44.086,178.626,43.945"/>
		<path clip-path="url(#SVGID_2_)" fill-rule="evenodd" clip-rule="evenodd" fill="#FFFFFF" d="M217.384,41.06
			c0,0.424-0.313,0.724-0.855,0.724h-1.224c-0.609,0-0.925-0.283-0.925-0.724v-4.961c0-0.371,0.42-0.742,0.925-0.742h1.224
			c0.507,0,0.855,0.318,0.855,0.742V41.06z M220.283,41.06v-4.961c0-2.015-1.519-3.319-3.755-3.319h-1.224
			c-2.234,0-3.79,1.323-3.79,3.319v4.961c0,1.996,1.521,3.319,3.79,3.319h1.224C218.765,44.379,220.283,43.056,220.283,41.06"/>
		<path clip-path="url(#SVGID_2_)" fill-rule="evenodd" clip-rule="evenodd" fill="#FFFFFF" d="M195.22,40.307
			c0.018,0.088-0.034,0.16-0.156,0.16h-1.014c-0.14,0-0.191-0.072-0.175-0.16l0.314-1.377c0.245-1.041,0.367-2.172,0.367-2.172
			h0.053c0,0,0.122,1.131,0.332,2.172L195.22,40.307z M199.324,43.891l-3.65-10.789c-0.034-0.104-0.088-0.123-0.156-0.123h-1.904
			c-0.105,0-0.14,0.037-0.175,0.123l-3.65,10.789c-0.052,0.143,0.018,0.23,0.175,0.23h2.689c0.088,0,0.122-0.035,0.158-0.124
			l0.471-1.323c0.035-0.089,0.069-0.125,0.21-0.125h2.095c0.141,0,0.193,0.036,0.229,0.125l0.454,1.323
			c0.034,0.089,0.052,0.124,0.156,0.124h2.742C199.359,44.121,199.377,44.033,199.324,43.891"/>
		<path clip-path="url(#SVGID_2_)" fill-rule="evenodd" clip-rule="evenodd" fill="#FFFFFF" d="M174.023,43.945v-2.262
			c0-0.121-0.087-0.158-0.175-0.158h-4.296c-0.157,0-0.209-0.07-0.209-0.195v-1.359c0-0.123,0.052-0.193,0.209-0.193h3.527
			c0.088,0,0.174-0.035,0.174-0.158v-2.278c0-0.124-0.086-0.159-0.174-0.159h-3.527c-0.157,0-0.209-0.07-0.209-0.195V35.77
			c0-0.123,0.052-0.195,0.209-0.195h4.296c0.105,0,0.175-0.034,0.175-0.158v-2.262c0-0.14-0.105-0.176-0.175-0.176h-7.266
			c-0.087,0-0.156,0.036-0.156,0.176v10.791c0,0.141,0.069,0.176,0.156,0.176h7.266C173.954,44.121,174.023,44.086,174.023,43.945"
			/>
		<path clip-path="url(#SVGID_2_)" fill-rule="evenodd" clip-rule="evenodd" fill="#FFFFFF" d="M164.984,43.892l-1.712-4.433
			c-0.052-0.158-0.069-0.283,0.087-0.388c0.769-0.493,1.275-1.342,1.275-2.437v-0.159c0-2.173-1.467-3.496-3.756-3.496h-4.872
			c-0.087,0-0.156,0.035-0.156,0.176v10.789c0,0.142,0.069,0.177,0.156,0.177h2.585c0.088,0,0.175-0.035,0.175-0.177v-3.974
			c0-0.122,0.052-0.193,0.21-0.193h1.205c0.069,0,0.122,0.036,0.157,0.124l1.606,4.097c0.035,0.07,0.087,0.123,0.157,0.123h2.725
			C165.002,44.121,165.036,44.015,164.984,43.892 M161.753,36.651c0,0.478-0.331,0.707-0.874,0.707h-1.902
			c-0.158,0-0.21-0.069-0.21-0.194v-1.396c0-0.123,0.052-0.193,0.21-0.193h1.902c0.577,0,0.874,0.265,0.874,0.742V36.651z"/>
		<path clip-path="url(#SVGID_2_)" fill-rule="evenodd" clip-rule="evenodd" fill="#FFFFFF" d="M213.424,11.598
			c0,1.426-1.061,2.373-2.622,2.373h-0.854c-1.586,0-2.646-0.947-2.646-2.373V8.049c0-1.428,1.087-2.373,2.646-2.373h0.854
			c1.562,0,2.622,0.934,2.622,2.373v0.68h-2.024v-0.68c0-0.304-0.245-0.531-0.598-0.531h-0.854c-0.354,0-0.646,0.266-0.646,0.531
			v3.549c0,0.315,0.22,0.518,0.646,0.518h0.854c0.379,0,0.598-0.215,0.598-0.518v-0.681h2.024V11.598z"/>
		<path clip-path="url(#SVGID_2_)" fill-rule="evenodd" clip-rule="evenodd" fill="#FFFFFF" d="M163.114,13.7V5.977
			c0-0.1-0.049-0.125-0.122-0.125h-1.771c-0.05,0-0.098,0.025-0.122,0.076l-1.404,3.879c-0.097,0.278-0.159,0.506-0.159,0.506
			h-0.048c0,0-0.025-0.228-0.135-0.506l-1.452-3.879c-0.025-0.051-0.074-0.076-0.122-0.076h-1.819c-0.073,0-0.109,0.025-0.109,0.125
			V13.7c0,0.103,0.036,0.126,0.109,0.126h1.722c0.085,0,0.122-0.023,0.122-0.126v-1.655c0-1.201-0.11-2.3-0.11-2.3h0.037
			c0,0,0.109,0.529,0.305,1.099l0.647,1.908c0.036,0.1,0.146,0.127,0.22,0.127h1.184c0.073,0,0.172-0.027,0.207-0.127l0.648-1.869
			c0.195-0.57,0.304-1.138,0.304-1.138h0.038c0,0-0.086,1.138-0.086,2.325v1.63c0,0.103,0.024,0.126,0.11,0.126h1.685
			C163.065,13.826,163.114,13.803,163.114,13.7"/>
		<path clip-path="url(#SVGID_2_)" fill-rule="evenodd" clip-rule="evenodd" fill="#FFFFFF" d="M183.428,13.695v-1.619
			c0-0.088-0.061-0.112-0.122-0.112h-2.842c-0.11,0-0.147-0.05-0.147-0.14v-0.974c0-0.088,0.037-0.138,0.147-0.138h2.304
			c0.062,0,0.123-0.025,0.123-0.114v-1.63c0-0.089-0.061-0.113-0.123-0.113h-2.304c-0.11,0-0.147-0.052-0.147-0.14V7.843
			c0-0.088,0.037-0.138,0.147-0.138h2.842c0.073,0,0.122-0.025,0.122-0.114V5.973c0-0.102-0.073-0.126-0.122-0.126h-4.918
			c-0.062,0-0.109,0.024-0.109,0.126v7.723c0,0.101,0.048,0.125,0.109,0.125h4.918C183.379,13.82,183.428,13.796,183.428,13.695"/>
		<path clip-path="url(#SVGID_2_)" fill-rule="evenodd" clip-rule="evenodd" fill="#FFFFFF" d="M177.185,11.495
			c0-1.414-0.684-2.033-2.112-2.501c-0.609-0.202-1.355-0.38-1.355-0.873c0-0.402,0.244-0.581,0.61-0.581h0.208
			c0.415,0,0.72,0.228,0.939,0.658c0.05,0.101,0.16,0.101,0.244,0.037l1.271-0.872c0.121-0.075,0.072-0.202,0.024-0.278
			c-0.159-0.278-0.354-0.53-0.587-0.733c-0.476-0.428-1.122-0.668-1.916-0.668h-0.184c-1.672,0-2.686,0.934-2.686,2.5
			c0,1.403,0.732,1.959,2.04,2.428c0.816,0.291,1.427,0.365,1.427,0.936c0,0.366-0.243,0.581-0.622,0.581h-0.379
			c-0.415,0-0.719-0.228-0.939-0.657c-0.049-0.101-0.159-0.101-0.244-0.039l-1.27,0.873c-0.122,0.076-0.073,0.19-0.024,0.266
			c0.134,0.238,0.294,0.453,0.488,0.644c0.488,0.493,1.172,0.771,2.015,0.771h0.378C176.232,13.985,177.185,13.051,177.185,11.495"
			/>
		<path clip-path="url(#SVGID_2_)" fill-rule="evenodd" clip-rule="evenodd" fill="#FFFFFF" d="M188.458,11.61
			c0,0.304-0.22,0.519-0.599,0.519h-0.854c-0.427,0-0.647-0.203-0.647-0.519V8.059c0-0.266,0.294-0.53,0.647-0.53h0.854
			c0.354,0,0.599,0.228,0.599,0.53V11.61z M190.484,11.61V8.059c0-1.441-1.062-2.375-2.625-2.375h-0.854
			c-1.563,0-2.649,0.947-2.649,2.375v3.552c0,1.427,1.062,2.375,2.649,2.375h0.854C189.422,13.985,190.484,13.037,190.484,11.61"/>
		<path clip-path="url(#SVGID_2_)" fill-rule="evenodd" clip-rule="evenodd" fill="#FFFFFF" d="M170.65,11.615V5.977
			c0-0.1-0.037-0.125-0.11-0.125h-1.795c-0.062,0-0.11,0.025-0.11,0.125v5.639c0,0.314-0.183,0.518-0.609,0.518h-0.854
			c-0.452,0-0.647-0.203-0.647-0.518V5.977c0-0.1-0.062-0.125-0.109-0.125h-1.771c-0.072,0-0.108,0.025-0.108,0.125v5.639
			c0,1.427,1.05,2.375,2.637,2.375h0.854C169.587,13.99,170.65,13.042,170.65,11.615"/>
		<path clip-path="url(#SVGID_2_)" fill-rule="evenodd" clip-rule="evenodd" fill="#FFFFFF" d="M199.335,13.701V5.98
			c0-0.102-0.072-0.127-0.121-0.127h-1.723c-0.073,0-0.108,0.025-0.108,0.127v2.047c0,1.125,0.06,2.11,0.06,2.11h-0.036
			c0,0-0.098-0.278-0.269-0.606l-1.807-3.563c-0.038-0.076-0.086-0.114-0.159-0.114h-1.55c-0.062,0-0.11,0.025-0.11,0.127v7.721
			c0,0.103,0.049,0.127,0.11,0.127h1.757c0.074,0,0.123-0.024,0.123-0.127v-2.008c0-1.037-0.073-2.035-0.073-2.035h0.049
			c0,0,0.098,0.277,0.256,0.567l1.819,3.49c0.036,0.063,0.073,0.112,0.134,0.112h1.527
			C199.286,13.828,199.335,13.804,199.335,13.701"/>
		<path clip-path="url(#SVGID_2_)" fill-rule="evenodd" clip-rule="evenodd" fill="#FFFFFF" d="M244.15,13.701v-1.617
			c0-0.088-0.061-0.114-0.122-0.114h-3.003c-0.108,0-0.146-0.05-0.146-0.138V5.98c0-0.102-0.073-0.127-0.122-0.127h-1.807
			c-0.06,0-0.108,0.025-0.108,0.127v7.721c0,0.103,0.049,0.127,0.108,0.127h5.078C244.102,13.828,244.15,13.804,244.15,13.701"/>
		<path clip-path="url(#SVGID_2_)" fill-rule="evenodd" clip-rule="evenodd" fill="#FFFFFF" d="M230.67,13.701V5.98
			c0-0.102-0.073-0.127-0.122-0.127h-1.72c-0.073,0-0.112,0.025-0.112,0.127v2.047c0,1.125,0.062,2.11,0.062,2.11h-0.037
			c0,0-0.098-0.278-0.27-0.606l-1.807-3.563c-0.034-0.076-0.084-0.114-0.156-0.114h-1.553c-0.06,0-0.108,0.025-0.108,0.127v7.721
			c0,0.103,0.049,0.127,0.108,0.127h1.758c0.074,0,0.123-0.024,0.123-0.127v-2.008c0-1.037-0.074-2.035-0.074-2.035h0.05
			c0,0,0.097,0.277,0.257,0.567l1.818,3.49c0.038,0.063,0.073,0.112,0.135,0.112h1.525C230.621,13.828,230.67,13.804,230.67,13.701"
			/>
		<path clip-path="url(#SVGID_2_)" fill-rule="evenodd" clip-rule="evenodd" fill="#FFFFFF" d="M216.505,13.701V5.98
			c0-0.102-0.084-0.127-0.133-0.127h-1.794c-0.062,0-0.11,0.025-0.11,0.127v7.721c0,0.103,0.049,0.127,0.11,0.127h1.794
			C216.445,13.828,216.505,13.804,216.505,13.701"/>
		<path clip-path="url(#SVGID_2_)" fill-rule="evenodd" clip-rule="evenodd" fill="#FFFFFF" d="M235.058,11.098
			c0.011,0.064-0.024,0.114-0.112,0.114h-0.707c-0.098,0-0.133-0.05-0.122-0.114l0.22-0.984c0.171-0.746,0.258-1.555,0.258-1.555
			h0.035c0,0,0.087,0.809,0.232,1.555L235.058,11.098z M237.925,13.663l-2.55-7.722c-0.024-0.075-0.062-0.088-0.111-0.088h-1.332
			c-0.07,0-0.095,0.025-0.119,0.088l-2.553,7.722c-0.035,0.103,0.014,0.165,0.122,0.165h1.88c0.062,0,0.087-0.025,0.111-0.088
			l0.328-0.948c0.024-0.063,0.049-0.088,0.146-0.088h1.465c0.098,0,0.136,0.024,0.16,0.088l0.317,0.948
			c0.024,0.062,0.035,0.088,0.108,0.088h1.918C237.949,13.828,237.963,13.766,237.925,13.663"/>
		<path clip-path="url(#SVGID_2_)" fill-rule="evenodd" clip-rule="evenodd" fill="#FFFFFF" d="M221.606,11.617
			c0,0.303-0.22,0.518-0.6,0.518h-0.854c-0.426,0-0.646-0.202-0.646-0.518V8.066c0-0.267,0.293-0.531,0.646-0.531h0.854
			c0.354,0,0.6,0.228,0.6,0.531V11.617z M223.633,11.617V8.066c0-1.441-1.063-2.378-2.626-2.378h-0.854
			c-1.563,0-2.648,0.948-2.648,2.378v3.551c0,1.427,1.062,2.375,2.648,2.375h0.854C222.569,13.992,223.633,13.044,223.633,11.617"/>
		<path clip-path="url(#SVGID_2_)" fill-rule="evenodd" clip-rule="evenodd" fill="#FFFFFF" d="M203.969,11.098
			c0.013,0.064-0.023,0.113-0.108,0.113h-0.709c-0.098,0-0.134-0.049-0.121-0.113l0.219-0.985c0.172-0.746,0.257-1.554,0.257-1.554
			h0.036c0,0,0.085,0.808,0.232,1.554L203.969,11.098z M206.839,13.663l-2.552-7.722c-0.024-0.075-0.062-0.088-0.11-0.088h-1.331
			c-0.072,0-0.098,0.025-0.121,0.088l-2.552,7.722c-0.037,0.103,0.013,0.165,0.122,0.165h1.88c0.062,0,0.085-0.025,0.11-0.088
			l0.329-0.948c0.024-0.063,0.049-0.09,0.146-0.09h1.465c0.098,0,0.135,0.026,0.159,0.09l0.317,0.948
			c0.024,0.062,0.037,0.088,0.109,0.088h1.917C206.862,13.828,206.875,13.766,206.839,13.663"/>
		<path clip-path="url(#SVGID_2_)" fill-rule="evenodd" clip-rule="evenodd" fill="#FFFFFF" d="M161.979,21.654
			c0,1.428-1.061,2.375-2.622,2.375h-0.854c-1.585,0-2.647-0.947-2.647-2.375v-3.549c0-1.427,1.086-2.373,2.647-2.373h0.854
			c1.562,0,2.622,0.934,2.622,2.373v0.68h-2.024v-0.68c0-0.303-0.243-0.531-0.598-0.531h-0.854c-0.354,0-0.647,0.267-0.647,0.531
			v3.549c0,0.316,0.22,0.519,0.647,0.519h0.854c0.378,0,0.598-0.215,0.598-0.519v-0.68h2.024V21.654z"/>
		<path clip-path="url(#SVGID_2_)" fill-rule="evenodd" clip-rule="evenodd" fill="#FFFFFF" d="M182.804,17.702v-1.618
			c0-0.102-0.072-0.127-0.109-0.127h-5.334c-0.061,0-0.122,0.025-0.122,0.127v1.618c0,0.088,0.062,0.114,0.122,0.114h1.495
			c0.134,0,0.158,0.051,0.158,0.138v5.853c0,0.103,0.049,0.127,0.11,0.127h1.795c0.061,0,0.122-0.024,0.122-0.127v-5.853
			c0-0.087,0.023-0.138,0.146-0.138h1.508C182.756,17.816,182.804,17.79,182.804,17.702"/>
		<path clip-path="url(#SVGID_2_)" fill-rule="evenodd" clip-rule="evenodd" fill="#FFFFFF" d="M176.014,23.808v-7.724
			c0-0.102-0.073-0.127-0.122-0.127h-1.721c-0.074,0-0.11,0.025-0.11,0.127v2.048c0,1.125,0.062,2.112,0.062,2.112h-0.037
			c0,0-0.098-0.278-0.269-0.608l-1.807-3.563c-0.037-0.076-0.085-0.115-0.159-0.115h-1.55c-0.062,0-0.11,0.025-0.11,0.127v7.724
			c0,0.103,0.049,0.127,0.11,0.127h1.758c0.073,0,0.122-0.024,0.122-0.127v-2.01c0-1.036-0.073-2.036-0.073-2.036h0.05
			c0,0,0.097,0.277,0.256,0.57l1.818,3.488c0.036,0.062,0.073,0.114,0.134,0.114h1.526C175.965,23.935,176.014,23.91,176.014,23.808
			"/>
		<path clip-path="url(#SVGID_2_)" fill-rule="evenodd" clip-rule="evenodd" fill="#FFFFFF" d="M195.431,21.656
			c0,0.304-0.22,0.519-0.6,0.519h-0.854c-0.427,0-0.647-0.202-0.647-0.519v-3.551c0-0.267,0.293-0.531,0.647-0.531h0.854
			c0.354,0,0.6,0.228,0.6,0.531V21.656z M197.456,21.656v-3.551c0-1.441-1.062-2.377-2.625-2.377h-0.854
			c-1.563,0-2.649,0.947-2.649,2.377v3.551c0,1.429,1.062,2.377,2.649,2.377h0.854C196.395,24.033,197.456,23.085,197.456,21.656"/>
		<path clip-path="url(#SVGID_2_)" fill-rule="evenodd" clip-rule="evenodd" fill="#FFFFFF" d="M188.146,18.586
			c0,0.343-0.231,0.506-0.61,0.506h-1.33c-0.11,0-0.147-0.051-0.147-0.137v-1c0-0.088,0.037-0.139,0.147-0.139h1.33
			c0.402,0,0.61,0.188,0.61,0.53V18.586z M190.405,23.77l-1.196-3.173c-0.037-0.114-0.049-0.202,0.061-0.279
			c0.537-0.353,0.892-0.959,0.892-1.743v-0.113c0-1.556-1.026-2.504-2.625-2.504h-3.405c-0.062,0-0.11,0.025-0.11,0.127v7.724
			c0,0.103,0.049,0.127,0.11,0.127h1.806c0.062,0,0.122-0.024,0.122-0.127v-2.845c0-0.088,0.037-0.139,0.147-0.139h0.842
			c0.049,0,0.086,0.025,0.11,0.088l1.123,2.933c0.023,0.051,0.061,0.09,0.109,0.09h1.904
			C190.417,23.935,190.441,23.857,190.405,23.77"/>
		<path clip-path="url(#SVGID_2_)" fill-rule="evenodd" clip-rule="evenodd" fill="#FFFFFF" d="M168.657,23.808v-1.619
			c0-0.088-0.061-0.112-0.121-0.112h-3.004c-0.109,0-0.146-0.051-0.146-0.14v-0.974c0-0.088,0.036-0.139,0.146-0.139h2.467
			c0.061,0,0.122-0.025,0.122-0.115v-1.631c0-0.086-0.062-0.112-0.122-0.112h-2.467c-0.109,0-0.146-0.05-0.146-0.138v-0.873
			c0-0.088,0.036-0.139,0.146-0.139h3.004c0.072,0,0.121-0.027,0.121-0.113v-1.619c0-0.102-0.072-0.127-0.121-0.127h-5.078
			c-0.062,0-0.11,0.025-0.11,0.127v7.724c0,0.103,0.049,0.127,0.11,0.127h5.078C168.608,23.935,168.657,23.91,168.657,23.808"/>
		<path clip-path="url(#SVGID_2_)" fill-rule="evenodd" clip-rule="evenodd" fill="#FFFFFF" d="M244.15,23.808v-1.619
			c0-0.088-0.061-0.112-0.122-0.112h-3.003c-0.111,0-0.146-0.051-0.146-0.14v-0.974c0-0.088,0.035-0.139,0.146-0.139h2.466
			c0.062,0,0.122-0.025,0.122-0.115v-1.631c0-0.086-0.061-0.112-0.122-0.112h-2.466c-0.111,0-0.146-0.05-0.146-0.138v-0.873
			c0-0.088,0.035-0.139,0.146-0.139h3.003c0.073,0,0.122-0.027,0.122-0.113v-1.619c0-0.102-0.073-0.127-0.122-0.127h-5.078
			c-0.06,0-0.111,0.025-0.111,0.127v7.724c0,0.103,0.052,0.127,0.111,0.127h5.078C244.102,23.935,244.15,23.91,244.15,23.808"/>
		<path clip-path="url(#SVGID_2_)" fill-rule="evenodd" clip-rule="evenodd" fill="#FFFFFF" d="M237.388,17.702v-1.618
			c0-0.102-0.073-0.127-0.108-0.127h-5.336c-0.062,0-0.122,0.025-0.122,0.127v1.618c0,0.088,0.06,0.114,0.122,0.114h1.495
			c0.135,0,0.159,0.051,0.159,0.138v5.853c0,0.103,0.049,0.127,0.108,0.127h1.797c0.059,0,0.121-0.024,0.121-0.127v-5.853
			c0-0.087,0.024-0.138,0.146-0.138h1.509C237.339,17.816,237.388,17.79,237.388,17.702"/>
		<path clip-path="url(#SVGID_2_)" fill-rule="evenodd" clip-rule="evenodd" fill="#FFFFFF" d="M213.866,23.808v-1.619
			c0-0.088-0.063-0.112-0.122-0.112h-3.003c-0.11,0-0.146-0.051-0.146-0.14v-0.974c0-0.088,0.036-0.139,0.146-0.139h2.466
			c0.061,0,0.122-0.025,0.122-0.115v-1.631c0-0.086-0.062-0.112-0.122-0.112h-2.466c-0.11,0-0.146-0.05-0.146-0.138v-0.873
			c0-0.088,0.036-0.139,0.146-0.139h3.003c0.073,0,0.122-0.027,0.122-0.113v-1.619c0-0.102-0.073-0.127-0.122-0.127h-5.078
			c-0.062,0-0.11,0.025-0.11,0.127v7.724c0,0.103,0.049,0.127,0.11,0.127h5.078C213.817,23.935,213.866,23.91,213.866,23.808"/>
		<path clip-path="url(#SVGID_2_)" fill-rule="evenodd" clip-rule="evenodd" fill="#FFFFFF" d="M206.996,21.456v-2.995
			c0-1.556-1.025-2.504-2.624-2.504h-3.405c-0.062,0-0.11,0.025-0.11,0.127v7.723c0,0.103,0.049,0.127,0.11,0.127h3.405
			C205.971,23.934,206.996,22.984,206.996,21.456 M204.982,21.557c0,0.266-0.269,0.52-0.61,0.52h-1.331
			c-0.109,0-0.146-0.051-0.146-0.141v-3.981c0-0.087,0.036-0.138,0.146-0.138h1.331c0.329,0,0.61,0.279,0.61,0.531V21.557z"/>
		<path clip-path="url(#SVGID_2_)" fill-rule="evenodd" clip-rule="evenodd" fill="#FFFFFF" d="M228.974,18.586
			c0,0.343-0.233,0.506-0.61,0.506h-1.331c-0.109,0-0.146-0.049-0.146-0.137v-1c0-0.088,0.037-0.139,0.146-0.139h1.331
			c0.401,0,0.61,0.188,0.61,0.53V18.586z M231.231,23.77l-1.197-3.173c-0.035-0.114-0.049-0.202,0.062-0.278
			c0.537-0.354,0.891-0.96,0.891-1.744v-0.113c0-1.556-1.026-2.504-2.624-2.504h-3.407c-0.06,0-0.108,0.025-0.108,0.127v7.724
			c0,0.103,0.049,0.127,0.108,0.127h1.807c0.062,0,0.123-0.024,0.123-0.127v-2.845c0-0.088,0.037-0.139,0.146-0.139h0.843
			c0.049,0,0.085,0.025,0.108,0.088l1.123,2.933c0.024,0.051,0.062,0.09,0.111,0.09h1.904
			C231.244,23.935,231.269,23.857,231.231,23.77"/>
		<path clip-path="url(#SVGID_2_)" fill-rule="evenodd" clip-rule="evenodd" fill="#FFFFFF" d="M220.93,21.205
			c0.013,0.062-0.022,0.112-0.11,0.112h-0.708c-0.097,0-0.132-0.051-0.121-0.112l0.22-0.988c0.171-0.745,0.258-1.555,0.258-1.555
			h0.035c0,0,0.085,0.81,0.231,1.555L220.93,21.205z M223.799,23.77l-2.55-7.725c-0.026-0.074-0.062-0.088-0.111-0.088h-1.331
			c-0.071,0-0.098,0.025-0.12,0.088l-2.553,7.725c-0.035,0.102,0.014,0.165,0.122,0.165h1.88c0.062,0,0.087-0.024,0.111-0.09
			l0.328-0.947c0.024-0.063,0.049-0.089,0.146-0.089h1.465c0.098,0,0.133,0.025,0.16,0.089l0.315,0.947
			c0.026,0.065,0.037,0.09,0.11,0.09h1.918C223.823,23.935,223.837,23.871,223.799,23.77"/>
		<path clip-path="url(#SVGID_2_)" fill-rule="evenodd" clip-rule="evenodd" fill="#FFFFFF" d="M150,0h100v50H150V0z
			 M247.342,29.788H152.66v17.551h94.682V29.788z M152.659,27.129h94.683V2.661L152.66,2.66L152.659,27.129z"/>
	</g>
</g>
</svg>
