<?xml version="1.0" encoding="UTF-8" standalone="no"?>
<svg width="103px" height="80px" viewBox="0 0 103 80" version="1.1" xmlns="http://www.w3.org/2000/svg" xmlns:xlink="http://www.w3.org/1999/xlink" xmlns:sketch="http://www.bohemiancoding.com/sketch/ns">
    <!-- Generator: Sketch 3.3 (11970) - http://www.bohemiancoding.com/sketch -->
    <title>” 3</title>
    <desc>Created with Sketch.</desc>
    <defs></defs>
    <g id="Welcome" stroke="none" stroke-width="1" fill="none" fill-rule="evenodd" sketch:type="MSPage">
        <g id="Sol-Lewitt" sketch:type="MSArtboardGroup" transform="translate(-642.000000, -3144.000000)" fill="#F4F4F4">
            <g id="Texto" sketch:type="MSLayerGroup" transform="translate(220.000000, 2554.000000)">
                <g id="Cita" transform="translate(194.000000, 589.000000)" sketch:type="MSShapeGroup">
                    <path d="M282.810019,71.7246377 C288.845966,69.4057855 294.443736,66.1691029 299.603497,62.0144928 C304.763258,57.8598826 308.024568,52.401 309.387524,45.6376812 C301.793913,45.6376812 295.31997,43.8502594 289.965501,40.2753623 C284.611032,36.7004652 281.933837,30.855113 281.933837,22.7391304 C281.933837,15.9758116 284.367651,10.6618551 289.23535,6.79710145 C294.103049,2.93234783 299.749495,1 306.174858,1 C314.742009,1 321.021247,3.85021304 325.01276,9.55072464 C329.004273,15.2512362 331,21.9661449 331,29.6956522 C331,36.6522087 329.588388,42.8357217 326.765123,48.2463768 C323.941857,53.6570319 320.291138,58.4879014 315.812854,62.7391304 C311.334571,66.9903594 306.174887,70.6135116 300.333648,73.6086957 C294.492409,76.6038797 288.651258,79.0676232 282.810019,81 L282.810019,71.7246377 Z M228.876181,71.7246377 C234.912128,69.4057855 240.509899,66.1691029 245.66966,62.0144928 C250.829421,57.8598826 254.09073,52.401 255.453686,45.6376812 C247.860075,45.6376812 241.386133,43.8502594 236.031664,40.2753623 C230.677194,36.7004652 228,30.855113 228,22.7391304 C228,15.9758116 230.433813,10.6618551 235.301512,6.79710145 C240.169211,2.93234783 245.815658,1 252.241021,1 C260.808171,1 267.087409,3.85021304 271.078922,9.55072464 C275.070436,15.2512362 277.066163,21.9661449 277.066163,29.6956522 C277.066163,36.6522087 275.654551,42.8357217 272.831285,48.2463768 C270.00802,53.6570319 266.3573,58.4879014 261.879017,62.7391304 C257.400734,66.9903594 252.24105,70.6135116 246.399811,73.6086957 C240.558572,76.6038797 234.717421,79.0676232 228.876181,81 L228.876181,71.7246377 Z" id="”-3" transform="translate(279.500000, 41.000000) rotate(-180.000000) translate(-279.500000, -41.000000) "></path>
                </g>
            </g>
        </g>
    </g>
</svg>